# xmcd
#
# Track frame offsets: 
#        183
#        14338
#        28550
#        40698
#        52218
#        63603
#        75165
#        85768
#        96305
#        110090
#        123943
#        135968
#        146795
#        159310
#        169950
#
# Disc length: 2434 seconds
#
# Revision: 2
# Processed by: cddbd v1.5.2PL0 Copyright (c) Steve Scherf et al.
# Submitted via: ExactAudioCopyFreeDBPlugin 1.0
#
DISCID=c209800f
DTITLE=Ray Charles - Blues Is My Middle Name
DYEAR=1900
DGENRE=
TTITLE0=Walking And Talking
TTITLE1=Blues Is My Middle Name
TTITLE2=Honey Honey
TTITLE3=Ray Charles Blues
TTITLE4=She's On The Ball
TTITLE5=How Long
TTITLE6=Hey Now
TTITLE7=Sittin On Top Of The World
TTITLE8=I'm Gonna Drown My Self
TTITLE9=Hey Some Day
TTITLE10=C. C. Rider
TTITLE11=I WOnder Who's Kissing Her Now
TTITLE12=I'm Glad For Your Sake
TTITLE13=They're Crazy Bout Me
TTITLE14=The Snow Is Falling
EXTD=
EXTT0=
EXTT1=
EXTT2=
EXTT3=
EXTT4=
EXTT5=
EXTT6=
EXTT7=
EXTT8=
EXTT9=
EXTT10=
EXTT11=
EXTT12=
EXTT13=
EXTT14=
PLAYORDER=
